<svg id="gear-svg3" viewBox="0 0 170 170" xmlns="http://www.w3.org/2000/svg"><path stroke="rgb(40,54,57)" stroke-width="1" fill="rgb(12,42,76)" fill-rule="evenodd" transform-origin="center" d="M70.469.091L92.001.004l3.468 16.522c4.489.355 8.415 2.706 12.421 3.973 2.353-2.031 11.036-10.94 13.123-10.731 2.28 2.847 17.365 11.126 15.816 13.489l-6.086 14.161c1.26 1.669 6.687 9.911 8.117 10.459l16.225-1.399 6.342 20.388-14.429 8.267c.31 2.059-.112 13-.069 13.056l4.383 2.774 10.066 5.756-6.943 20.373-16.685-1.757-7.369 10.688 6.645 15.054c-2.742 2.14-15.818 12.452-18.078 12.098-1.409-2.003-10.641-10.614-12.863-10.393-3.092 1.729-7.23 2.652-11.473 3.588l-3.348 16.303-21.586-.152-3.414-16.284c-4.326-.95-8.29-2.424-12.183-4.026l-13.069 10.97a182721.2 182721.2 0 00-16.847-12.504l6.825-15.331c-2.681-3.334-5.471-6.629-7.694-10.805l-16.648 1.745L.067 95.951l14.668-8.32c-.887-4.479-.623-9.461.016-13.295l-14.45-8.53 6.52-20.027c8.941-.349 16.062 5.297 20.012-3.506l4.572-5.293-6.752-15.531C29.327 18.834 38.05 9.777 42.439 9.166l12.255 11.031 12.373-4.042L70.469.091zm1.562 37.014l3.049 9.093c5.56-1.26 16.526 1.615 17.954.719l3.851-7.388-.638-.608-11.861-2.594c-3.952-.319-7.941.631-12.355.778zM61.99 40.37l-7.757 4.507c-4.416 3.216-7.26 7.494-10.762 11.201l.931.794 7.275 3.376c4.689-3.309 7.394-7.985 13.546-11.077-.463-2.422-1.628-7.84-3.233-8.801zm43.686 3.699a57980.84 57980.84 0 00-4.221 7.973c3.973 3.686 7.868 6.798 10.801 12.362l8.849-2.997-.054-.239c-3.05-6.333-9.375-15.385-15.375-17.099zm-28.347 9.898c4.069-.795 9.708 1.482 11.801.099l.632-1.647c-4.27-.383-7.726-1.88-13.208-.785l.053.238.722 2.095zm-10.632.64c-3.467 2.846-7.714 4.663-9.629 8.439l.477-.108c.75.615.983.762 2.177.764 1.566-2.917 4.999-4.802 7.989-6.816-.23-1.181-.42-1.803-1.014-2.279zM36.482 88.499l8.902-2.759c-.953-6.365.383-11.584 1.811-16.457-1.155-.861-8.148-4.221-8.337-3.639-3.325 5.138-3.851 14.957-2.376 22.855zm36.751-29.346c-9.499 6.621-14.978 8.797-15.798 21.114-1.115 16.737 17.075 29.388 31.965 22.89 25.86-11.285 15.115-51.542-16.167-44.004zm25.373-1.955c-.568 1.122-1.202 1.484-.471 2.363 1.822 2.502 4.346 4.668 6.411 7.332l2.332-.776c-2.196-3.417-4.873-7.368-8.272-8.919zM53.333 83.197c-.666-3.771.192-7.447 1.191-10.299l-2.046-1.295-.423.347c-.351 3.944-1.924 7.124-1.054 12.023l2.332-.776zm70.212-12.058l-7.895 2.782c1.691 6.77.846 12.175-.402 17.143l8.444 4.116c1.123-7.603 3.098-13.907.807-24.256l-.954.215zm-15.658 5.032c1.139 4.725.108 7.753.085 11.517l2.177.763c.299-3.558 1.932-8.962.069-13.056l-2.331.776zM53.865 93.359l-.423.346c1.602 4.323 4.77 8.343 7.878 10.513l1.294-2.047c-2.56-2.593-5.178-5.199-6.841-9.242l-1.908.43zm-7.948 2.543l-6.756 2.275c3.407 9.287 9.498 13.729 14.905 19.462l.792-.931 3.851-7.388c-4.312-3.019-8.297-7.94-10.646-13.901l-2.146.483zm57.626 1.059c-1.652 3.138-9.73 7.684-9.038 11.065l.716-.161c4.321-2.767 8.846-5.889 10.737-10.194l-.477.108-1.938-.818zm-32.455 10.573l-1.109 1.755.346.423c4.726.696 8.793 2.416 14.854 1.418l-.775-2.333c-5.397.764-8.967-1.106-13.316-1.263zm39.784-6.958c-1.919 3.752-5.87 7.575-9.491 10.164l-4.925 2.614.644 2.864 2.112 6.044.954-.215c8.063-4.728 15.737-9.93 19.097-17.593-1.86-1.511-5.837-3.703-8.391-3.878zm-21.224 24.845l-2.756-8.909c-8.249 1.807-18.124-3.231-21.002.218l-2.981 5.687.639.609c8.196 1.348 14.928 4.803 26.1 2.395z"/>
    </svg>