<svg id="gear-svg2" viewBox="0 0 231 231" xmlns="http://www.w3.org/2000/svg"><path stroke="rgb(40,54,57)" stroke-width="1" fill="rgb(238, 238, 248)" fill-rule="evenodd" transform-origin="center" d="M31.395 39.449c.462-2.97 10.592-12.64 13.097-14.433 3.053 1.61 19.076 12.57 20.354 11.923 5.447-2.049 9.885-6.074 15.813-7.956l1.178-23.639L111.471.711l8.368 21.489c6.791.103 12.565 1.793 18.458 2.632L153.002 6.57l26.75 13.576-5.788 22.788c5.457 2.627 8.786 8.738 13.147 12.57 3.406-.736 21.612-6.581 22.714-5.781l13.679 26.467-17.988 14.863c1.789 5.16 2.995 11.553 3.031 18.054l22.214 8.354-4.362 29.499-23.672 1.65c-.833 3.647-8.131 15.841-7.489 17.101l12.261 19.241-20.92 20.985L167 193.77l-16.597 8.715c.004 3.581-.095 21.674-1.426 23.12l-22.17 3.99c-2.075.426-6.108 1.513-7.198.133l-8.376-20.975c-7.049-.019-12.669-1.524-18.458-2.632l-14.449 18.267-26.507-12.801c-1.159-5.539 4.518-16.888 5.284-23.311-5.01-3.61-8.42-8.829-13.147-12.57l-22.719 6.038L7.562 155.02l17.993-15.12c-2.239-4.489-2.974-12.045-3.031-18.054L.563 113.753l4.366-29.756 23.41-1.397c1.384-6.509 6.204-11.023 8-16.835L23.572 46.001c2.411-1.819 4.4-6.097 7.823-6.552zm83.045 12.746l-6.175.408-12.899 2.864C76.408 62.415 58.733 77.598 54.518 99.51c6.286-.371 28.74-.807 32.69-3.037 2.748-6.418 11.841-12.828 19.516-14.065l11.313-30.151-3.597-.062zm16.925 2.092c-.016 4.501 1.106 30.284 2.787 32.193 5.564 5.988 12.676 9.921 14.308 19.791l30.126 11.577c1.004-35.971-20.381-54.061-47.221-63.561zm-18.381 37.744c-10.403 4.224-16.513 5.519-20.079 16.884-4.923 15.689 9.084 32.695 25.696 30.016 28.164-4.541 27.414-46.85-5.617-46.9zm-60.49 20.559c-.91 26.589 11.454 43.916 27.071 54.729 1.962 1.358 18.383 11.201 20.411 8.58l-2.805-31.165c-5.892-6.346-13.071-10.317-14.804-20.828L52.494 112.59zm122.526 18.312l-30.107 2.311c-2.625 5.004-7.279 9.335-12.031 12.136l-8.801 3.706-11.303 29.637c36.286 1.012 54.425-20.411 64.036-47.501l.005-.258-1.799-.031z"/>
    </svg>
 
 