<svg xmlns="http://www.w3.org/2000/svg" viewBox="0 0 594.56 297.68">
<g id="Layer_2" data-name="Layer 2">
<g id="Layer_1-2" data-name="Layer 1">
<g id="Layer_2-2" data-name="Layer 2">
<g id="Layer_1-2-2" data-name="Layer 1-2" stroke-miterlimit="10" fill-rule="evenodd">
<path id="svg3_orange" data-name="svg3 orange" 
d="M486.62 83.44l25.38-.15 4.12 19.28c5.3.4 9.93 3.14 14.64 4.61 2.74-2.37 13-12.81 15.42-12.57 2.69 3.32 20.47 13 18.66 15.72l-7.1 16.56c1.49 1.94 7.9 11.55 9.59 12.19l19.09-1.67 7.52 23.79-17 9.69c.37 2.41-.1 15.18 0 15.25l5.17 3.23 11.89 6.7-8.12 23.81-19.64-2-8.66 12.5 7.86 17.6c-3.22 2.51-18.59 14.58-21.25 14.17-1.66-2.33-12.56-12.36-15.17-12.1-3.66 2-8.51 3.12-13.5 4.22q-2 9.53-3.91 19.07l-25.41-.13-4.06-19a85.39 85.39 0 01-14.36-4.67l-15.41 12.83-19.87-14.52 8-17.92c-3.16-3.9-6.45-7.74-9.08-12.61l-19.6 2.08-7.82-23.73 17.26-9.84a44.94 44.94 0 010-15.52l-17.05-9.9 7.58-23.41c10.52-.43 18.92 6.15 23.55-4.14l5.37-6.19-8-18.16c5.49-3.07 15.75-13.67 20.91-14.39L468.1 107l14.58-4.76q1.98-9.39 3.94-18.8zm1.93 43.23q1.83 5.31 3.61 10.61c6.54-1.49 19.47 1.82 21.14.79q2.26-4.31 4.52-8.63l-.75-.71-14-3c-4.65-.36-9.35.77-14.54 1zm-11.82 3.84l-9.15 5.27c-5.18 3.77-8.53 8.77-12.64 13.11l1.1.91 8.57 3.93c5.49-3.88 8.69-9.35 15.93-13-.53-2.82-1.92-9.14-3.81-10.25zm51.45 4.2q-2.46 4.68-5 9.32c4.69 4.3 9.29 7.92 12.75 14.41l10.46-3.44a.48.48 0 00-.06-.28c-3.6-7.44-11.1-18-18.1-20zm-33.35 11.63c4.79-.91 11.44 1.71 13.9.09l.74-1.92c-5-.44-9.1-2.18-15.55-.91a1.27 1.27 0 00.06.28c.28.82.57 1.63.86 2.44zm-12.52.78c-4.07 3.33-9.06 5.45-11.32 9.88l.56-.13a3.05 3.05 0 002.57.91c1.83-3.41 5.88-5.63 9.39-8-.28-1.38-.51-2.11-1.2-2.66zm-35.49 39.62l10.47-3.24c-1.13-7.44.42-13.54 2.1-19.23-1.37-1-9.61-4.91-9.84-4.23-3.89 6.05-4.49 17.51-2.73 26.7zM490 152.41c-11.17 7.76-17.61 10.32-18.55 24.7-1.27 19.55 20.18 34.28 37.7 26.65 30.42-13.24 17.67-60.23-19.15-51.35zm29.87-2.35c-.66 1.32-1.41 1.74-.54 2.73 2.15 2.92 5.12 5.44 7.56 8.55l2.75-.91c-2.6-4-5.76-8.59-9.77-10.39zm-53.24 30.48a24.07 24.07 0 011.37-12l-2.41-1.54-.49.41c-.41 4.61-2.26 8.33-1.21 14zm82.6-14.25l-9.29 3.27c2 7.89 1 14.21-.43 20l10 4.79c1.31-8.88 3.62-16.25.92-28.33zm-18.4 5.93c1.35 5.52.15 9.07.13 13.45l2.56.91c.35-4.16 2.25-10.48 0-15.25zm-63.57 20.2l-.49.41a27.27 27.27 0 009.3 12.26l1.52-2.39c-3-3-6.11-6.06-8.08-10.77zm-9.31 3l-8 2.67c4 10.84 11.22 16 17.6 22.7l.91-1.09 4.52-8.64a36.4 36.4 0 01-12.57-16.21zm67.85 1.09c-1.94 3.63-11.43 9-10.61 13l.84-.19c5.08-3.24 10.4-6.9 12.61-11.93l-.55.13zm-38.19 12.43l-1.27 2c.14.17.28.33.41.5 5.57.8 10.36 2.8 17.49 1.62l-.91-2.73c-6.39.89-10.58-1.27-15.72-1.44zm46.83-8.22c-2.25 4.38-6.89 8.86-11.16 11.89l-5.79 3.07.77 3.34 2.5 7 1.12-.25c9.49-5.54 18.51-11.64 22.45-20.59-2.23-1.76-6.92-4.31-9.92-4.51zm-24.93 29.05l-3.27-10.4c-9.7 2.13-21.35-3.73-24.69.31l-3.5 6.65.76.7c9.58 1.58 17.56 5.6 30.66 2.76z" 
fill="#517c78" stroke="#202a38">
<animateTransform
       id='gear-p3'
       attributeName="transform"
       type="rotate"
       from="0 497 177"
       to="360 497 177"  
       begin="3s"
       dur="3.5s"
    />
    </path>
<path id="Color_Fill_8" data-name="Color Fill 8" 
d="M184.07 69.49c-.35-3.25 7.54-16.28 9.66-18.87 3.66.83 23.55 7.82 24.7 6.77 5.14-3.68 8.66-9.17 14.35-12.82q-2.73-12.57-5.42-25.18L257.1 6.15l14.81 20.23c7.16-1.82 13.69-1.67 20.1-2.45L302.32.57l31.91 6.72.36 25.58c6.46 1.21 11.67 6.7 17.32 9.49 3.36-1.74 20.81-13.06 22.19-12.49l21.79 24-14.66 20.65a62.9 62.9 0 018.27 18.08l25.64 2.5q1.86 16.08 3.74 32.24l-24.36 8.42c.15 4.07-4.07 19-3 20.09l18.28 16.76-16 28-24-7.26-15 13.87c1 3.77 6 22.81 5 24.7l-22.12 10.45c-2 1-6 3.32-7.51 2.18l-14.69-19.68c-7.4 2-13.71 2-20.09 2.45l-10 23.28-31.4-6c-2.77-5.49 0-19-1-26-6.27-2.38-11.31-6.9-17.32-9.49l-22.13 12.76-21.87-24.22 14.62-21c-3.62-4.09-6.51-11.82-8.27-18.08l-25.31-2.3q-1.89-16.26-3.79-32.51l24.15-8c-.38-7.23 3.4-13.34 3.65-20l-19-17.23c2.01-2.53 2.88-7.53 6.35-9.04zm94.6.14l-5.38 1.84-10.75 5.63c-15.16 10.7-27.22 28.4-25.74 48.9 5.49-1.84 25.3-7.58 28.26-10.51.91-6.36 7.45-14.23 14-17.16l2.85-29.5zm15.5-2.18c1.05 4 8.18 26.65 10.13 28 6.36 4 13.6 5.78 17.4 14.16l29.47 3.09c-7.67-32.26-30.94-43.22-57-45.25zm-7.32 37.93c-8.21 6.24-13.32 8.86-13.78 19.81-.63 15.07 15.84 26.88 29.92 20.52 23.91-10.73 13.24-48.17-16.13-40.33zm-48.74 32.72c5.52 23.85 20.61 36.29 37.07 42.2 2.07.73 19 5.56 20.14 2.75l-9.9-27c-6.73-4.23-14-6-18.08-15zm113-13L325 134.35a29.83 29.83 0 01-7.77 13.65l-6.92 5.39q-1.5 14.52-3 29c32.42-7.77 43.4-31.15 45.47-57.51l-.06-.24z" 
fill="#fff" stroke="#303c4f">
<animateTransform
       id='gear-p1'
       attributeName="transform"
       type="rotate"
       from="0 294 126"
       to="-360 294 126" 
       begin="3s"
       dur="3.5s"
    />
    </path>
<path id="svg3_orange-2" data-name="svg3 orange-2" 
d="M83.31 107.31l25.35-.16q2.07 9.66 4.13 19.29c5.29.4 9.92 3.14 14.64 4.6 2.74-2.37 13-12.8 15.43-12.56 2.69 3.32 20.48 13 18.66 15.71q-3.56 8.28-7.13 16.56c1.48 1.95 7.9 11.56 9.59 12.2l19.02-1.68 7.52 23.79-17 9.7c.36 2.4-.1 15.18-.06 15.24l5.17 3.23 11.9 6.7-8.13 23.82-19.66-2-8.65 12.5 7.91 17.57c-3.23 2.51-18.61 14.58-21.27 14.17-1.66-2.33-12.55-12.36-15.17-12.1-3.66 2-8.51 3.12-13.5 4.21q-2 9.54-3.91 19.07l-25.4-.17-4-19a86.9 86.9 0 01-14.4-4.63L49 286.15l-19.9-14.5 8-17.92c-3.16-3.89-6.45-7.73-9.09-12.61L8.4 243.21Q4.5 231.3.6 219.44l17.25-9.76a45.44 45.44 0 010-15.52l-17-9.93 7.63-23.43c10.53-.43 18.93 6.14 23.56-4.14l5.37-6.2-8-18.15c5.49-3.07 15.76-13.68 20.93-14.39l14.45 12.92 14.57-4.75q1.94-9.39 3.95-18.78zm1 38q2 5.85 4 11.69c7.15-1.64 21.28 2 23.11.87q2.49-4.74 4.94-9.51l-.82-.79-15.34-3.3c-5.11-.4-10.24.83-15.92 1zm-12.92 4.22l-10 5.82c-5.68 4.15-9.33 9.66-13.82 14.44l1.2 1 9.37 4.33c6-4.27 9.5-10.3 17.41-14.29-.61-3.1-2.12-10.06-4.19-11.3zm56.25 4.64q-2.73 5.13-5.41 10.27c5.12 4.73 10.14 8.72 13.93 15.87l11.39-3.88a.46.46 0 00-.07-.3c-4-8.14-12.14-19.77-19.87-22zM91.11 167c5.24-1 12.51 1.88 15.2.1.27-.71.53-1.42.8-2.12-5.49-.48-10-2.4-17-1a.55.55 0 00.07.31l.93 2.69zm-13.68.86c-4.46 3.67-9.92 6-12.37 10.88l.61-.14a3.29 3.29 0 002.81 1c2-3.75 6.42-6.19 10.26-8.79-.3-1.51-.54-2.31-1.31-2.92zm-38.8 43.67L50.08 208c-1.25-8.18.46-14.9 2.28-21.17-1.48-1.11-10.5-5.41-10.74-4.66-4.26 6.55-4.91 19.18-2.99 29.34zm47.23-37.86C73.65 182.2 66.6 185 65.58 200.86c-1.41 21.53 22.06 37.74 41.21 29.36 33.26-14.59 19.31-66.35-20.93-56.57zm32.65-2.58c-.72 1.44-1.54 1.91-.6 3 2.36 3.21 5.61 6 8.28 9.42l3-1c-2.84-4.39-6.3-9.46-10.68-11.45zM60.3 204.6a26.61 26.61 0 011.51-13.25l-2.64-1.62-.54.44c-.44 5.08-2.46 9.18-1.32 15.48zm90.36-15.71l-10.16 3.61c2.2 8.7 1.12 15.66-.47 22l10.88 5.27c1.43-9.78 4-17.9 1-31.2zm-20.15 6.52c1.48 6.08.16 10 .14 14.82l2.81 1c.37-4.58 2.46-11.53 0-16.79zM61 217.71l-.55.45a30.25 30.25 0 0010.17 13.5c.56-.88 1.11-1.76 1.66-2.64-3.3-3.33-6.68-6.67-8.83-11.87zM50.79 221l-8.69 3c4.41 11.94 12.27 17.63 19.24 25l1-1.2 4.94-9.52a40 40 0 01-13.75-17.88zm74.21 1.19c-2.12 4-12.51 9.91-11.61 14.26l.92-.21c5.56-3.57 11.38-7.6 13.8-13.15l-.61.14zM83.23 235.9c-.48.75-1 1.51-1.42 2.26l.44.54c6.09.88 11.33 3.09 19.13 1.79l-1-3c-6.95.99-11.55-1.4-17.15-1.59zm51.19-9.06c-2.46 4.83-7.53 9.76-12.19 13.1l-6.33 3.38.84 3.68 2.73 7.77 1.23-.28c10.37-6.11 20.23-12.82 24.53-22.69-2.39-1.93-7.52-4.74-10.81-4.96zm-27.25 32l-3.57-11.46c-10.62 2.35-23.34-4.1-27 .34-1.27 2.44-2.54 4.89-3.82 7.33l.82.78c10.57 1.77 19.19 6.16 33.57 3z" 
fill="#0e203c" stroke="#202a38">
<animateTransform
       id='gear-p2'
       attributeName="transform"
       type="rotate"  
       from="0 94 201"
       to="360 94 201" 
       begin="3s"
       dur="3.5s"
    />
    </path>
</g></g></g></g></svg>